<svg xmlns="http://www.w3.org/2000/svg" version="1.1" xmlns:xlink="http://www.w3.org/1999/xlink" xmlns:svgjs="http://svgjs.com/svgjs" width="512" height="512" x="0" y="0" viewBox="0 0 512 512" style="enable-background:new 0 0 512 512" xml:space="preserve" class=""><circle r="256" cx="256" cy="256" fill="#a7dd12" shape="circle" transform="matrix(1,0,0,1,0,0)"></circle><g transform="matrix(0.8599999999999999,0,0,0.8599999999999999,35.839999732971194,30.840002136230567)"><path d="m327.019 412.903-54.192-15.305-79.588 15.305-11.562 57.807h156.904z" fill="#dad8db" data-original="#dad8db" class=""></path><path d="m327.019 412.903-4.954-24.774h-123.871l-4.955 24.774z" fill="#c8c5c9" data-original="#c8c5c9" class=""></path><path d="m487.226 388.5h-454.226c-13.682 0-24.774-11.092-24.774-24.774v-16.887c0-13.682 11.092-24.774 24.774-24.774h454.226c13.682 0 24.774 11.092 24.774 24.774v24.774c0 2.895-.497 5.675-1.409 8.257z" fill="#eceaec" data-original="#eceaec"></path><path d="m487.226 33.032h-462.452c-2.896 0-5.675.497-8.259 1.41l-10.515 23.364 10.516 289.032h495.484v-289.032c0-13.682-11.092-24.774-24.774-24.774z" fill="#5d5360" data-original="#5d5360" class=""></path><path d="m111 307-68.75 1.25-9.218-10.96v-222.967c0-4.561 3.697-8.258 8.258-8.258h429.42c4.561 0 8.258 3.697 8.258 8.258v24.774z" fill="#b6b1b7" data-original="#b6b1b7" class=""></path><path d="m82.581 239.484 374.747 7.807s21.64-27.958 21.64-57.356v-90.838h-388.129c-4.561 0-8.258 3.697-8.258 8.258z" fill="#c3ddff" data-original="#c3ddff"></path><circle cx="231.226" cy="198.194" fill="#ffffff" r="57.806" data-original="#ffffff" class=""></circle><path d="m478.968 189.935s-36.879 43.17-109.419 22.71c-80.516-22.71-138.323 35.097-138.323 35.097v49.548h221.274s26.468-42.29 26.468-74.323c0-8.257 0-33.032 0-33.032z" fill="#90a955" data-original="#ccf49f" class=""></path><path d="m222.968 181.677h-8.258c-4.565 0-8.258-3.698-8.258-8.258 0-4.552-3.702-8.258-8.258-8.258-2.113 0-4.145.827-5.71 2.331-1.855 1.77-4.444 2.585-6.96 2.206-2.54-.387-4.75-1.931-5.992-4.177-2.927-5.315-8.435-8.617-14.371-8.617-9.105 0-16.516 7.407-16.516 16.516 0 4.56-3.694 8.258-8.258 8.258h-16.516c-4.565 0-8.258-3.698-8.258-8.258s3.694-8.258 8.258-8.258h9.306c3.669-14.23 16.621-24.774 31.984-24.774 9.008 0 17.508 3.738 23.645 10.113 2.952-1.218 6.129-1.855 9.387-1.855 10.766 0 19.952 6.903 23.363 16.516h1.411c4.565 0 8.258 3.698 8.258 8.258s-3.693 8.257-8.257 8.257z" fill="#edf4ff" data-original="#edf4ff" class=""></path><path d="m429.419 173.419h-16.516c-4.565 0-8.258-3.698-8.258-8.258 0-9.109-7.411-16.516-16.516-16.516-5.935 0-11.444 3.302-14.371 8.613-1.242 2.25-3.46 3.79-5.992 4.177-2.581.371-5.105-.431-6.96-2.21-1.565-1.496-3.589-2.323-5.71-2.323-4.556 0-8.258 3.706-8.258 8.258 0 4.56-3.694 8.258-8.258 8.258h-8.258c-4.565 0-8.258-3.698-8.258-8.258s3.694-8.258 8.258-8.258h1.411c3.411-9.613 12.597-16.516 23.363-16.516 3.258 0 6.435.637 9.387 1.851 6.137-6.371 14.637-10.109 23.645-10.109 15.363 0 28.315 10.544 31.984 24.774h9.306c4.565 0 8.258 3.698 8.258 8.258s-3.692 8.259-8.257 8.259z" fill="#edf4ff" data-original="#edf4ff" class=""></path><path d="m346.839 478.968h-181.678c-4.565 0-8.258-3.698-8.258-8.258s3.694-8.258 8.258-8.258h181.677c4.565 0 8.258 3.698 8.258 8.258s-3.693 8.258-8.257 8.258z" fill="#eceaec" data-original="#eceaec"></path><path d="m49.548 379.871c-18.243 0-33.032-14.789-33.032-33.032h-16.516v24.774c0 13.682 11.092 24.774 24.774 24.774h462.452c10.771 0 19.955-6.916 23.368-16.516z" fill="#dad8db" data-original="#dad8db" class=""></path><path d="m0 57.806v289.032h16.516v-312.395c-9.6 3.413-16.516 12.592-16.516 23.363z" fill="#4b3f4e" data-original="#4b3f4e" class=""></path><path d="m272.516 256c-74.323-41.29-128-52.301-189.936-16.516v57.806l261.42 11.71 134.968-11.71v-74.323c-66.065 99.098-169.538 53.541-206.452 33.033z" fill="#4f772d" data-original="#95d6a4" class=""></path><path d="m478.968 297.29h-396.387v16.516h388.129c4.561 0 8.258-3.697 8.258-8.258z" fill="#32cd30" data-original="#78c2a4" class=""></path><path d="m66.065 115.613h-16.517c-4.561 0-8.258-3.697-8.258-8.258 0-4.561 3.697-8.258 8.258-8.258h16.516c4.561 0 8.258 3.697 8.258 8.258.001 4.561-3.697 8.258-8.257 8.258z" fill="#eceaec" data-original="#eceaec"></path><path d="m66.065 148.645h-16.517c-4.561 0-8.258-3.697-8.258-8.258 0-4.561 3.697-8.258 8.258-8.258h16.516c4.561 0 8.258 3.697 8.258 8.258.001 4.561-3.697 8.258-8.257 8.258z" fill="#eceaec" data-original="#eceaec"></path><g fill="#c8c5c9"><path d="m66.065 181.677h-16.517c-4.561 0-8.258-3.697-8.258-8.258 0-4.561 3.697-8.258 8.258-8.258h16.516c4.561 0 8.258 3.697 8.258 8.258.001 4.561-3.697 8.258-8.257 8.258z" fill="#c8c5c9" data-original="#c8c5c9" class=""></path><path d="m66.065 214.71h-16.517c-4.561 0-8.258-3.697-8.258-8.258 0-4.561 3.697-8.258 8.258-8.258h16.516c4.561 0 8.258 3.697 8.258 8.258.001 4.56-3.697 8.258-8.257 8.258z" fill="#c8c5c9" data-original="#c8c5c9" class=""></path><path d="m355.097 90.839c-4.561 0-8.258-3.697-8.258-8.258 0-4.561 3.697-8.258 8.258-8.258 4.561 0 8.258 3.697 8.258 8.258 0 4.56-3.697 8.258-8.258 8.258z" fill="#c8c5c9" data-original="#c8c5c9" class=""></path><path d="m421.161 90.839c-4.561 0-8.258-3.697-8.258-8.258 0-4.561 3.697-8.258 8.258-8.258 4.561 0 8.258 3.697 8.258 8.258 0 4.56-3.697 8.258-8.258 8.258z" fill="#c8c5c9" data-original="#c8c5c9" class=""></path></g><path d="m41.29 313.806h41.29v-16.516h-49.548v8.258c0 4.561 3.698 8.258 8.258 8.258z" fill="#9b959d" data-original="#9b959d" class=""></path></g></svg>